<mxfile host="Electron" agent="Mozilla/5.0 (Windows NT 10.0; Win64; x64) AppleWebKit/537.36 (KHTML, like Gecko) draw.io/28.2.5 Chrome/138.0.7204.251 Electron/37.6.1 Safari/537.36" version="28.2.5">
  <diagram name="第 1 页" id="XgIQo4NafmfbC__hgtfv">
    <mxGraphModel dx="1682" dy="1152" grid="0" gridSize="10" guides="1" tooltips="1" connect="1" arrows="1" fold="1" page="0" pageScale="1" pageWidth="1169" pageHeight="827" background="#ffffff" math="0" shadow="0">
      <root>
        <mxCell id="0" />
        <mxCell id="1" parent="0" />
        <mxCell id="4LYANcPHWq9vuV5rM0Qy-9" style="rounded=0;orthogonalLoop=1;jettySize=auto;html=1;exitX=0.25;exitY=1;exitDx=0;exitDy=0;entryX=1;entryY=0;entryDx=0;entryDy=0;endArrow=none;endFill=0;strokeColor=#333333;" parent="1" source="4LYANcPHWq9vuV5rM0Qy-1" target="4LYANcPHWq9vuV5rM0Qy-2" edge="1">
          <mxGeometry relative="1" as="geometry" />
        </mxCell>
        <mxCell id="4LYANcPHWq9vuV5rM0Qy-10" style="rounded=0;orthogonalLoop=1;jettySize=auto;html=1;exitX=0;exitY=0.5;exitDx=0;exitDy=0;entryX=1;entryY=0.5;entryDx=0;entryDy=0;endArrow=none;endFill=0;strokeColor=#333333;" parent="1" source="4LYANcPHWq9vuV5rM0Qy-1" target="4LYANcPHWq9vuV5rM0Qy-6" edge="1">
          <mxGeometry relative="1" as="geometry" />
        </mxCell>
        <mxCell id="4LYANcPHWq9vuV5rM0Qy-11" style="rounded=0;orthogonalLoop=1;jettySize=auto;html=1;exitX=0.5;exitY=1;exitDx=0;exitDy=0;entryX=0.5;entryY=0;entryDx=0;entryDy=0;endArrow=none;endFill=0;strokeColor=#333333;" parent="1" source="4LYANcPHWq9vuV5rM0Qy-1" target="4LYANcPHWq9vuV5rM0Qy-3" edge="1">
          <mxGeometry relative="1" as="geometry" />
        </mxCell>
        <mxCell id="4LYANcPHWq9vuV5rM0Qy-12" style="rounded=0;orthogonalLoop=1;jettySize=auto;html=1;exitX=1;exitY=1;exitDx=0;exitDy=0;entryX=0.5;entryY=0;entryDx=0;entryDy=0;endArrow=none;endFill=0;strokeColor=#333333;" parent="1" source="4LYANcPHWq9vuV5rM0Qy-1" target="4LYANcPHWq9vuV5rM0Qy-4" edge="1">
          <mxGeometry relative="1" as="geometry" />
        </mxCell>
        <mxCell id="4LYANcPHWq9vuV5rM0Qy-13" style="rounded=0;orthogonalLoop=1;jettySize=auto;html=1;exitX=1;exitY=0.5;exitDx=0;exitDy=0;endArrow=none;endFill=0;strokeColor=#333333;" parent="1" source="4LYANcPHWq9vuV5rM0Qy-1" target="4LYANcPHWq9vuV5rM0Qy-5" edge="1">
          <mxGeometry relative="1" as="geometry" />
        </mxCell>
        <mxCell id="4LYANcPHWq9vuV5rM0Qy-44" style="rounded=0;orthogonalLoop=1;jettySize=auto;html=1;exitX=0.5;exitY=0;exitDx=0;exitDy=0;entryX=0.5;entryY=1;entryDx=0;entryDy=0;strokeColor=#333333;endArrow=none;endFill=0;" parent="1" source="4LYANcPHWq9vuV5rM0Qy-1" target="4LYANcPHWq9vuV5rM0Qy-34" edge="1">
          <mxGeometry relative="1" as="geometry" />
        </mxCell>
        <mxCell id="4LYANcPHWq9vuV5rM0Qy-1" value="&lt;b&gt;Ingredients&lt;/b&gt;" style="rounded=0;whiteSpace=wrap;html=1;fillColor=#fff2cc;strokeColor=#d6b656;fontStyle=1;fontSize=14;strokeWidth=2;fontColor=#333333;" parent="1" vertex="1">
          <mxGeometry x="868" y="1071" width="120" height="60" as="geometry" />
        </mxCell>
        <mxCell id="4LYANcPHWq9vuV5rM0Qy-2" value="&lt;u&gt;ingredient_id&lt;/u&gt;" style="ellipse;whiteSpace=wrap;html=1;fillColor=#fff2cc;strokeColor=#d6b656;fontColor=#333333;" parent="1" vertex="1">
          <mxGeometry x="754" y="1151" width="100" height="40" as="geometry" />
        </mxCell>
        <mxCell id="4LYANcPHWq9vuV5rM0Qy-3" value="name" style="ellipse;whiteSpace=wrap;html=1;fillColor=#fff2cc;strokeColor=#d6b656;fontColor=#333333;" parent="1" vertex="1">
          <mxGeometry x="884" y="1161" width="70" height="40" as="geometry" />
        </mxCell>
        <mxCell id="4LYANcPHWq9vuV5rM0Qy-4" value="category" style="ellipse;whiteSpace=wrap;html=1;fillColor=#fff2cc;strokeColor=#d6b656;fontColor=#333333;" parent="1" vertex="1">
          <mxGeometry x="984" y="1151" width="80" height="40" as="geometry" />
        </mxCell>
        <mxCell id="4LYANcPHWq9vuV5rM0Qy-5" value="aliases" style="ellipse;whiteSpace=wrap;html=1;fillColor=#fff2cc;strokeColor=#d6b656;shape=doubleEllipse;fontColor=#333333;" parent="1" vertex="1">
          <mxGeometry x="1074" y="1101" width="80" height="40" as="geometry" />
        </mxCell>
        <mxCell id="4LYANcPHWq9vuV5rM0Qy-6" value="unit" style="ellipse;whiteSpace=wrap;html=1;fillColor=#fff2cc;strokeColor=#d6b656;dashed=1;fontColor=#333333;" parent="1" vertex="1">
          <mxGeometry x="734" y="1091" width="70" height="40" as="geometry" />
        </mxCell>
        <mxCell id="4LYANcPHWq9vuV5rM0Qy-26" style="rounded=0;orthogonalLoop=1;jettySize=auto;html=1;exitX=0.75;exitY=0;exitDx=0;exitDy=0;entryX=0;entryY=1;entryDx=0;entryDy=0;strokeColor=#333333;startArrow=none;startFill=0;endArrow=none;endFill=0;" parent="1" source="4LYANcPHWq9vuV5rM0Qy-14" target="4LYANcPHWq9vuV5rM0Qy-17" edge="1">
          <mxGeometry relative="1" as="geometry" />
        </mxCell>
        <mxCell id="4LYANcPHWq9vuV5rM0Qy-27" style="rounded=0;orthogonalLoop=1;jettySize=auto;html=1;exitX=1;exitY=0.25;exitDx=0;exitDy=0;entryX=0;entryY=0.5;entryDx=0;entryDy=0;strokeColor=#333333;startArrow=none;startFill=0;endArrow=none;endFill=0;" parent="1" source="4LYANcPHWq9vuV5rM0Qy-14" target="4LYANcPHWq9vuV5rM0Qy-23" edge="1">
          <mxGeometry relative="1" as="geometry" />
        </mxCell>
        <mxCell id="4LYANcPHWq9vuV5rM0Qy-30" style="rounded=0;orthogonalLoop=1;jettySize=auto;html=1;exitX=0.25;exitY=1;exitDx=0;exitDy=0;entryX=0.5;entryY=0;entryDx=0;entryDy=0;strokeColor=#333333;startArrow=none;startFill=0;endArrow=none;endFill=0;" parent="1" source="4LYANcPHWq9vuV5rM0Qy-14" target="4LYANcPHWq9vuV5rM0Qy-20" edge="1">
          <mxGeometry relative="1" as="geometry" />
        </mxCell>
        <mxCell id="4LYANcPHWq9vuV5rM0Qy-32" style="rounded=0;orthogonalLoop=1;jettySize=auto;html=1;exitX=0;exitY=0.5;exitDx=0;exitDy=0;entryX=1;entryY=0.5;entryDx=0;entryDy=0;strokeColor=#333333;startArrow=none;startFill=0;endArrow=none;endFill=0;" parent="1" source="4LYANcPHWq9vuV5rM0Qy-14" target="4LYANcPHWq9vuV5rM0Qy-18" edge="1">
          <mxGeometry relative="1" as="geometry" />
        </mxCell>
        <mxCell id="4LYANcPHWq9vuV5rM0Qy-43" style="rounded=0;orthogonalLoop=1;jettySize=auto;html=1;exitX=0.5;exitY=1;exitDx=0;exitDy=0;entryX=0.5;entryY=0;entryDx=0;entryDy=0;strokeColor=#333333;endArrow=none;endFill=0;shape=link;" parent="1" source="4LYANcPHWq9vuV5rM0Qy-14" target="4LYANcPHWq9vuV5rM0Qy-34" edge="1">
          <mxGeometry relative="1" as="geometry" />
        </mxCell>
        <mxCell id="4LYANcPHWq9vuV5rM0Qy-100" style="rounded=0;orthogonalLoop=1;jettySize=auto;html=1;exitX=1;exitY=0.5;exitDx=0;exitDy=0;strokeColor=#333333;entryX=0;entryY=0.5;entryDx=0;entryDy=0;endArrow=none;endFill=0;" parent="1" source="4LYANcPHWq9vuV5rM0Qy-14" target="fGZl--ZOmI5c5a0cFDRq-34" edge="1">
          <mxGeometry relative="1" as="geometry">
            <mxPoint x="1241" y="716" as="targetPoint" />
          </mxGeometry>
        </mxCell>
        <mxCell id="4LYANcPHWq9vuV5rM0Qy-14" value="&lt;b&gt;Recipes&lt;/b&gt;" style="rounded=0;whiteSpace=wrap;html=1;fillColor=#d5e8d4;strokeColor=#82B366;fontStyle=1;fontSize=14;strokeWidth=2;fontColor=#333333;" parent="1" vertex="1">
          <mxGeometry x="938" y="686" width="120" height="60" as="geometry" />
        </mxCell>
        <mxCell id="4LYANcPHWq9vuV5rM0Qy-15" value="&lt;u&gt;recipe_id&lt;/u&gt;" style="ellipse;whiteSpace=wrap;html=1;fillColor=#d5e8d4;strokeColor=#82b366;fontColor=#333333;" parent="1" vertex="1">
          <mxGeometry x="831" y="581" width="90" height="40" as="geometry" />
        </mxCell>
        <mxCell id="4LYANcPHWq9vuV5rM0Qy-16" value="title" style="ellipse;whiteSpace=wrap;html=1;fillColor=#d5e8d4;strokeColor=#82b366;fontColor=#333333;" parent="1" vertex="1">
          <mxGeometry x="929" y="603" width="80" height="40" as="geometry" />
        </mxCell>
        <mxCell id="4LYANcPHWq9vuV5rM0Qy-17" value="description" style="ellipse;whiteSpace=wrap;html=1;fillColor=#d5e8d4;strokeColor=#82b366;fontColor=#333333;" parent="1" vertex="1">
          <mxGeometry x="1055" y="581" width="90" height="40" as="geometry" />
        </mxCell>
        <mxCell id="4LYANcPHWq9vuV5rM0Qy-18" value="instructions" style="ellipse;whiteSpace=wrap;html=1;fillColor=#d5e8d4;strokeColor=#82b366;fontColor=#333333;" parent="1" vertex="1">
          <mxGeometry x="764" y="638" width="90" height="40" as="geometry" />
        </mxCell>
        <mxCell id="4LYANcPHWq9vuV5rM0Qy-19" value="prep_time" style="ellipse;whiteSpace=wrap;html=1;fillColor=#d5e8d4;strokeColor=#82b366;fontColor=#333333;" parent="1" vertex="1">
          <mxGeometry x="754" y="696" width="90" height="40" as="geometry" />
        </mxCell>
        <mxCell id="4LYANcPHWq9vuV5rM0Qy-20" value="cook_time" style="ellipse;whiteSpace=wrap;html=1;fillColor=#d5e8d4;strokeColor=#82b366;fontColor=#333333;" parent="1" vertex="1">
          <mxGeometry x="898" y="786" width="90" height="40" as="geometry" />
        </mxCell>
        <mxCell id="4LYANcPHWq9vuV5rM0Qy-21" value="servings" style="ellipse;whiteSpace=wrap;html=1;fillColor=#d5e8d4;strokeColor=#82b366;fontColor=#333333;" parent="1" vertex="1">
          <mxGeometry x="1018" y="786" width="80" height="40" as="geometry" />
        </mxCell>
        <mxCell id="4LYANcPHWq9vuV5rM0Qy-22" value="image_url" style="ellipse;whiteSpace=wrap;html=1;fillColor=#d5e8d4;strokeColor=#82b366;dashed=1;fontColor=#333333;" parent="1" vertex="1">
          <mxGeometry x="1108" y="756" width="90" height="40" as="geometry" />
        </mxCell>
        <mxCell id="4LYANcPHWq9vuV5rM0Qy-23" value="difficulty" style="ellipse;whiteSpace=wrap;html=1;fillColor=#d5e8d4;strokeColor=#82b366;dashed=1;fontColor=#333333;" parent="1" vertex="1">
          <mxGeometry x="1118" y="634" width="80" height="40" as="geometry" />
        </mxCell>
        <mxCell id="4LYANcPHWq9vuV5rM0Qy-25" style="rounded=0;orthogonalLoop=1;jettySize=auto;html=1;exitX=0.389;exitY=0.004;exitDx=0;exitDy=0;entryX=0.369;entryY=1.025;entryDx=0;entryDy=0;entryPerimeter=0;strokeColor=#333333;startArrow=none;startFill=0;exitPerimeter=0;endArrow=none;endFill=0;" parent="1" source="4LYANcPHWq9vuV5rM0Qy-14" target="4LYANcPHWq9vuV5rM0Qy-16" edge="1">
          <mxGeometry relative="1" as="geometry" />
        </mxCell>
        <mxCell id="4LYANcPHWq9vuV5rM0Qy-28" style="rounded=0;orthogonalLoop=1;jettySize=auto;html=1;exitX=1;exitY=0.75;exitDx=0;exitDy=0;entryX=0.011;entryY=0.288;entryDx=0;entryDy=0;entryPerimeter=0;strokeColor=#333333;startArrow=none;startFill=0;endArrow=none;endFill=0;" parent="1" source="4LYANcPHWq9vuV5rM0Qy-14" target="4LYANcPHWq9vuV5rM0Qy-22" edge="1">
          <mxGeometry relative="1" as="geometry" />
        </mxCell>
        <mxCell id="4LYANcPHWq9vuV5rM0Qy-29" style="rounded=0;orthogonalLoop=1;jettySize=auto;html=1;exitX=0.75;exitY=1;exitDx=0;exitDy=0;entryX=0.338;entryY=0.075;entryDx=0;entryDy=0;entryPerimeter=0;strokeColor=#333333;startArrow=none;startFill=0;endArrow=none;endFill=0;" parent="1" source="4LYANcPHWq9vuV5rM0Qy-14" target="4LYANcPHWq9vuV5rM0Qy-21" edge="1">
          <mxGeometry relative="1" as="geometry" />
        </mxCell>
        <mxCell id="4LYANcPHWq9vuV5rM0Qy-31" style="rounded=0;orthogonalLoop=1;jettySize=auto;html=1;exitX=0;exitY=0.75;exitDx=0;exitDy=0;entryX=0.939;entryY=0.213;entryDx=0;entryDy=0;entryPerimeter=0;strokeColor=#333333;startArrow=none;startFill=0;endArrow=none;endFill=0;" parent="1" source="4LYANcPHWq9vuV5rM0Qy-14" target="4LYANcPHWq9vuV5rM0Qy-19" edge="1">
          <mxGeometry relative="1" as="geometry" />
        </mxCell>
        <mxCell id="4LYANcPHWq9vuV5rM0Qy-33" style="rounded=0;orthogonalLoop=1;jettySize=auto;html=1;exitX=0;exitY=0.25;exitDx=0;exitDy=0;entryX=0.933;entryY=0.838;entryDx=0;entryDy=0;entryPerimeter=0;strokeColor=#333333;startArrow=none;startFill=0;endArrow=none;endFill=0;" parent="1" source="4LYANcPHWq9vuV5rM0Qy-14" target="4LYANcPHWq9vuV5rM0Qy-15" edge="1">
          <mxGeometry relative="1" as="geometry" />
        </mxCell>
        <mxCell id="4LYANcPHWq9vuV5rM0Qy-40" style="rounded=0;orthogonalLoop=1;jettySize=auto;html=1;exitX=1;exitY=0;exitDx=0;exitDy=0;entryX=0;entryY=0.5;entryDx=0;entryDy=0;strokeColor=#333333;endArrow=none;endFill=0;" parent="1" source="4LYANcPHWq9vuV5rM0Qy-34" target="4LYANcPHWq9vuV5rM0Qy-36" edge="1">
          <mxGeometry relative="1" as="geometry" />
        </mxCell>
        <mxCell id="4LYANcPHWq9vuV5rM0Qy-41" style="rounded=0;orthogonalLoop=1;jettySize=auto;html=1;exitX=1;exitY=1;exitDx=0;exitDy=0;entryX=0;entryY=0.5;entryDx=0;entryDy=0;strokeColor=#333333;endArrow=none;endFill=0;" parent="1" source="4LYANcPHWq9vuV5rM0Qy-34" target="4LYANcPHWq9vuV5rM0Qy-37" edge="1">
          <mxGeometry relative="1" as="geometry" />
        </mxCell>
        <mxCell id="4LYANcPHWq9vuV5rM0Qy-42" style="rounded=0;orthogonalLoop=1;jettySize=auto;html=1;exitX=0;exitY=0;exitDx=0;exitDy=0;entryX=1;entryY=0.5;entryDx=0;entryDy=0;strokeColor=#333333;endArrow=none;endFill=0;" parent="1" source="4LYANcPHWq9vuV5rM0Qy-34" target="4LYANcPHWq9vuV5rM0Qy-35" edge="1">
          <mxGeometry relative="1" as="geometry" />
        </mxCell>
        <mxCell id="4LYANcPHWq9vuV5rM0Qy-34" value="&lt;b&gt;Contains_Ingredent&lt;/b&gt;" style="rhombus;whiteSpace=wrap;html=1;fillColor=#ffe6cc;strokeColor=#d79b00;fontStyle=1;fontSize=13;strokeWidth=2;fontColor=#333333;" parent="1" vertex="1">
          <mxGeometry x="929" y="923.75" width="179" height="105.25" as="geometry" />
        </mxCell>
        <mxCell id="4LYANcPHWq9vuV5rM0Qy-35" value="quantity_display" style="ellipse;whiteSpace=wrap;html=1;fillColor=#ffe6cc;strokeColor=#d79b00;fontColor=#333333;" parent="1" vertex="1">
          <mxGeometry x="848" y="910" width="110" height="40" as="geometry" />
        </mxCell>
        <mxCell id="4LYANcPHWq9vuV5rM0Qy-36" value="is_core_ingredient" style="ellipse;whiteSpace=wrap;html=1;fillColor=#ffe6cc;strokeColor=#d79b00;fontColor=#333333;" parent="1" vertex="1">
          <mxGeometry x="1120" y="887.75" width="120" height="40" as="geometry" />
        </mxCell>
        <mxCell id="4LYANcPHWq9vuV5rM0Qy-37" value="notes" style="ellipse;whiteSpace=wrap;html=1;fillColor=#ffe6cc;strokeColor=#d79b00;dashed=1;fontColor=#333333;" parent="1" vertex="1">
          <mxGeometry x="1120" y="1019.75" width="70" height="40" as="geometry" />
        </mxCell>
        <mxCell id="4LYANcPHWq9vuV5rM0Qy-56" style="rounded=0;orthogonalLoop=1;jettySize=auto;html=1;exitX=0.25;exitY=0;exitDx=0;exitDy=0;entryX=0.5;entryY=1;entryDx=0;entryDy=0;strokeColor=#333333;endArrow=none;endFill=0;" parent="1" source="4LYANcPHWq9vuV5rM0Qy-46" target="4LYANcPHWq9vuV5rM0Qy-48" edge="1">
          <mxGeometry relative="1" as="geometry" />
        </mxCell>
        <mxCell id="4LYANcPHWq9vuV5rM0Qy-58" style="rounded=0;orthogonalLoop=1;jettySize=auto;html=1;exitX=1;exitY=0.25;exitDx=0;exitDy=0;entryX=0.5;entryY=1;entryDx=0;entryDy=0;strokeColor=#333333;endArrow=none;endFill=0;" parent="1" source="4LYANcPHWq9vuV5rM0Qy-46" target="4LYANcPHWq9vuV5rM0Qy-51" edge="1">
          <mxGeometry relative="1" as="geometry" />
        </mxCell>
        <mxCell id="4LYANcPHWq9vuV5rM0Qy-59" style="rounded=0;orthogonalLoop=1;jettySize=auto;html=1;exitX=0;exitY=0.5;exitDx=0;exitDy=0;entryX=1;entryY=0.5;entryDx=0;entryDy=0;strokeColor=#333333;endArrow=none;endFill=0;" parent="1" source="4LYANcPHWq9vuV5rM0Qy-46" target="4LYANcPHWq9vuV5rM0Qy-50" edge="1">
          <mxGeometry relative="1" as="geometry" />
        </mxCell>
        <mxCell id="4LYANcPHWq9vuV5rM0Qy-67" style="rounded=0;orthogonalLoop=1;jettySize=auto;html=1;exitX=0.5;exitY=1;exitDx=0;exitDy=0;entryX=0.5;entryY=0;entryDx=0;entryDy=0;strokeColor=#333333;endArrow=none;endFill=0;" parent="1" source="4LYANcPHWq9vuV5rM0Qy-46" target="fGZl--ZOmI5c5a0cFDRq-9" edge="1">
          <mxGeometry relative="1" as="geometry">
            <mxPoint x="296.0000000000002" y="1040.25" as="targetPoint" />
          </mxGeometry>
        </mxCell>
        <mxCell id="4LYANcPHWq9vuV5rM0Qy-82" style="rounded=0;orthogonalLoop=1;jettySize=auto;html=1;exitX=1;exitY=1;exitDx=0;exitDy=0;entryX=0;entryY=0.5;entryDx=0;entryDy=0;strokeColor=#333333;endArrow=none;endFill=0;" parent="1" source="4LYANcPHWq9vuV5rM0Qy-46" target="4LYANcPHWq9vuV5rM0Qy-72" edge="1">
          <mxGeometry relative="1" as="geometry" />
        </mxCell>
        <mxCell id="4LYANcPHWq9vuV5rM0Qy-86" style="rounded=0;orthogonalLoop=1;jettySize=auto;html=1;exitX=1;exitY=0.5;exitDx=0;exitDy=0;entryX=0;entryY=0.5;entryDx=0;entryDy=0;strokeColor=#333333;endArrow=none;endFill=0;" parent="1" source="4LYANcPHWq9vuV5rM0Qy-46" target="4LYANcPHWq9vuV5rM0Qy-85" edge="1">
          <mxGeometry relative="1" as="geometry" />
        </mxCell>
        <mxCell id="Ztesn_iidaRLeLfR7DhW-21" style="rounded=0;orthogonalLoop=1;jettySize=auto;html=1;exitX=0.986;exitY=0.649;exitDx=0;exitDy=0;entryX=0;entryY=0.5;entryDx=0;entryDy=0;endArrow=none;endFill=0;strokeColor=#333333;exitPerimeter=0;" parent="1" source="4LYANcPHWq9vuV5rM0Qy-46" target="Ztesn_iidaRLeLfR7DhW-19" edge="1">
          <mxGeometry relative="1" as="geometry" />
        </mxCell>
        <mxCell id="4LYANcPHWq9vuV5rM0Qy-46" value="&lt;b&gt;Users&lt;/b&gt;" style="rounded=0;whiteSpace=wrap;html=1;fillColor=#dae8fc;strokeColor=#6c8ebf;fontStyle=1;fontSize=14;strokeWidth=2;fontColor=#333333;" parent="1" vertex="1">
          <mxGeometry x="235" y="893.75" width="120" height="60" as="geometry" />
        </mxCell>
        <mxCell id="4LYANcPHWq9vuV5rM0Qy-47" value="&lt;u&gt;user_id&lt;/u&gt;" style="ellipse;whiteSpace=wrap;html=1;fillColor=#dae8fc;strokeColor=#6c8ebf;fontColor=#333333;" parent="1" vertex="1">
          <mxGeometry x="90" y="866.75" width="80" height="40" as="geometry" />
        </mxCell>
        <mxCell id="4LYANcPHWq9vuV5rM0Qy-48" value="username" style="ellipse;whiteSpace=wrap;html=1;fillColor=#dae8fc;strokeColor=#6c8ebf;fontColor=#333333;" parent="1" vertex="1">
          <mxGeometry x="186" y="806.75" width="80" height="40" as="geometry" />
        </mxCell>
        <mxCell id="4LYANcPHWq9vuV5rM0Qy-49" value="email" style="ellipse;whiteSpace=wrap;html=1;fillColor=#dae8fc;strokeColor=#6c8ebf;fontColor=#333333;" parent="1" vertex="1">
          <mxGeometry x="285" y="798" width="70" height="40" as="geometry" />
        </mxCell>
        <mxCell id="4LYANcPHWq9vuV5rM0Qy-50" value="password" style="ellipse;whiteSpace=wrap;html=1;fillColor=#dae8fc;strokeColor=#6c8ebf;fontColor=#333333;" parent="1" vertex="1">
          <mxGeometry x="96" y="953.75" width="80" height="40" as="geometry" />
        </mxCell>
        <mxCell id="4LYANcPHWq9vuV5rM0Qy-51" value="created_at" style="ellipse;whiteSpace=wrap;html=1;fillColor=#dae8fc;strokeColor=#6c8ebf;fontColor=#333333;" parent="1" vertex="1">
          <mxGeometry x="355" y="826.75" width="80" height="40" as="geometry" />
        </mxCell>
        <mxCell id="4LYANcPHWq9vuV5rM0Qy-55" style="rounded=0;orthogonalLoop=1;jettySize=auto;html=1;exitX=0;exitY=0.25;exitDx=0;exitDy=0;entryX=0.659;entryY=0.982;entryDx=0;entryDy=0;entryPerimeter=0;strokeColor=#333333;endArrow=none;endFill=0;" parent="1" source="4LYANcPHWq9vuV5rM0Qy-46" target="4LYANcPHWq9vuV5rM0Qy-47" edge="1">
          <mxGeometry relative="1" as="geometry" />
        </mxCell>
        <mxCell id="4LYANcPHWq9vuV5rM0Qy-57" style="rounded=0;orthogonalLoop=1;jettySize=auto;html=1;exitX=0.5;exitY=0;exitDx=0;exitDy=0;entryX=0.351;entryY=1.014;entryDx=0;entryDy=0;strokeColor=#333333;endArrow=none;endFill=0;entryPerimeter=0;" parent="1" source="4LYANcPHWq9vuV5rM0Qy-46" target="4LYANcPHWq9vuV5rM0Qy-49" edge="1">
          <mxGeometry relative="1" as="geometry" />
        </mxCell>
        <mxCell id="4LYANcPHWq9vuV5rM0Qy-64" style="rounded=0;orthogonalLoop=1;jettySize=auto;html=1;exitX=0;exitY=0.5;exitDx=0;exitDy=0;entryX=0.5;entryY=1;entryDx=0;entryDy=0;strokeColor=#333333;endArrow=none;endFill=0;" parent="1" source="fGZl--ZOmI5c5a0cFDRq-6" target="4LYANcPHWq9vuV5rM0Qy-61" edge="1">
          <mxGeometry relative="1" as="geometry">
            <mxPoint x="226" y="1192.25" as="sourcePoint" />
          </mxGeometry>
        </mxCell>
        <mxCell id="4LYANcPHWq9vuV5rM0Qy-65" style="rounded=0;orthogonalLoop=1;jettySize=auto;html=1;entryX=0;entryY=1;entryDx=0;entryDy=0;strokeColor=#333333;endArrow=none;endFill=0;exitX=1;exitY=0.5;exitDx=0;exitDy=0;" parent="1" source="fGZl--ZOmI5c5a0cFDRq-6" target="4LYANcPHWq9vuV5rM0Qy-62" edge="1">
          <mxGeometry relative="1" as="geometry">
            <mxPoint x="393" y="1208" as="sourcePoint" />
          </mxGeometry>
        </mxCell>
        <mxCell id="4LYANcPHWq9vuV5rM0Qy-61" value="&lt;u&gt;preference_id&lt;/u&gt;" style="ellipse;whiteSpace=wrap;html=1;fillColor=#e1d5e7;strokeColor=#9673a6;fontColor=#333333;" parent="1" vertex="1">
          <mxGeometry x="126" y="1131" width="100" height="40" as="geometry" />
        </mxCell>
        <mxCell id="4LYANcPHWq9vuV5rM0Qy-62" value="allergens" style="ellipse;whiteSpace=wrap;html=1;fillColor=#e1d5e7;strokeColor=#9673a6;shape=doubleEllipse;fontColor=#333333;" parent="1" vertex="1">
          <mxGeometry x="406" y="1146" width="80" height="40" as="geometry" />
        </mxCell>
        <mxCell id="fGZl--ZOmI5c5a0cFDRq-8" style="rounded=0;orthogonalLoop=1;jettySize=auto;html=1;exitX=0.5;exitY=1;exitDx=0;exitDy=0;entryX=0.5;entryY=0;entryDx=0;entryDy=0;strokeColor=#333333;endArrow=none;endFill=0;" edge="1" parent="1" source="fGZl--ZOmI5c5a0cFDRq-9" target="fGZl--ZOmI5c5a0cFDRq-6">
          <mxGeometry relative="1" as="geometry">
            <mxPoint x="296.0000000000002" y="1115.25" as="sourcePoint" />
          </mxGeometry>
        </mxCell>
        <mxCell id="4LYANcPHWq9vuV5rM0Qy-76" style="rounded=0;orthogonalLoop=1;jettySize=auto;html=1;exitX=1;exitY=0.5;exitDx=0;exitDy=0;entryX=0;entryY=0;entryDx=0;entryDy=0;shape=link;strokeColor=#333333;" parent="1" source="4LYANcPHWq9vuV5rM0Qy-72" target="4LYANcPHWq9vuV5rM0Qy-1" edge="1">
          <mxGeometry relative="1" as="geometry" />
        </mxCell>
        <mxCell id="4LYANcPHWq9vuV5rM0Qy-81" style="rounded=0;orthogonalLoop=1;jettySize=auto;html=1;exitX=1;exitY=1;exitDx=0;exitDy=0;entryX=0.5;entryY=0;entryDx=0;entryDy=0;endArrow=none;endFill=0;strokeColor=#333333;" parent="1" source="4LYANcPHWq9vuV5rM0Qy-72" target="4LYANcPHWq9vuV5rM0Qy-79" edge="1">
          <mxGeometry relative="1" as="geometry" />
        </mxCell>
        <mxCell id="4LYANcPHWq9vuV5rM0Qy-72" value="&lt;b&gt;Owns&lt;/b&gt;" style="rhombus;whiteSpace=wrap;html=1;fillColor=#ffe6cc;strokeColor=#d79b00;fontStyle=1;fontSize=13;strokeWidth=2;fontColor=#333333;" parent="1" vertex="1">
          <mxGeometry x="560" y="1031" width="100" height="80" as="geometry" />
        </mxCell>
        <mxCell id="4LYANcPHWq9vuV5rM0Qy-78" value="quantity" style="ellipse;whiteSpace=wrap;html=1;fillColor=#ffe6cc;strokeColor=#d79b00;fontColor=#333333;" parent="1" vertex="1">
          <mxGeometry x="515" y="1123" width="80" height="40" as="geometry" />
        </mxCell>
        <mxCell id="4LYANcPHWq9vuV5rM0Qy-79" value="added_at" style="ellipse;whiteSpace=wrap;html=1;fillColor=#ffe6cc;strokeColor=#d79b00;fontColor=#333333;" parent="1" vertex="1">
          <mxGeometry x="622" y="1131" width="80" height="40" as="geometry" />
        </mxCell>
        <mxCell id="4LYANcPHWq9vuV5rM0Qy-80" style="rounded=0;orthogonalLoop=1;jettySize=auto;html=1;exitX=0;exitY=1;exitDx=0;exitDy=0;entryX=0.681;entryY=0.096;entryDx=0;entryDy=0;entryPerimeter=0;endArrow=none;endFill=0;strokeColor=#333333;" parent="1" source="4LYANcPHWq9vuV5rM0Qy-72" target="4LYANcPHWq9vuV5rM0Qy-78" edge="1">
          <mxGeometry relative="1" as="geometry" />
        </mxCell>
        <mxCell id="4LYANcPHWq9vuV5rM0Qy-87" style="rounded=0;orthogonalLoop=1;jettySize=auto;html=1;exitX=1;exitY=0.5;exitDx=0;exitDy=0;entryX=0;entryY=1;entryDx=0;entryDy=0;strokeColor=#333333;endArrow=none;endFill=0;" parent="1" source="4LYANcPHWq9vuV5rM0Qy-85" target="4LYANcPHWq9vuV5rM0Qy-14" edge="1">
          <mxGeometry relative="1" as="geometry" />
        </mxCell>
        <mxCell id="4LYANcPHWq9vuV5rM0Qy-89" style="rounded=0;orthogonalLoop=1;jettySize=auto;html=1;exitX=0.5;exitY=0;exitDx=0;exitDy=0;entryX=0.5;entryY=1;entryDx=0;entryDy=0;endArrow=none;endFill=0;strokeColor=#333333;" parent="1" source="4LYANcPHWq9vuV5rM0Qy-85" target="4LYANcPHWq9vuV5rM0Qy-88" edge="1">
          <mxGeometry relative="1" as="geometry" />
        </mxCell>
        <mxCell id="4LYANcPHWq9vuV5rM0Qy-85" value="&lt;b&gt;Favorites&lt;/b&gt;" style="rhombus;whiteSpace=wrap;html=1;fillColor=#ffe6cc;strokeColor=#d79b00;fontStyle=1;fontSize=13;strokeWidth=2;fontColor=#333333;" parent="1" vertex="1">
          <mxGeometry x="593" y="718" width="100" height="80" as="geometry" />
        </mxCell>
        <mxCell id="4LYANcPHWq9vuV5rM0Qy-88" value="favorited_at" style="ellipse;whiteSpace=wrap;html=1;fillColor=#ffe6cc;strokeColor=#d79b00;fontColor=#333333;" parent="1" vertex="1">
          <mxGeometry x="607" y="638" width="90" height="40" as="geometry" />
        </mxCell>
        <mxCell id="4LYANcPHWq9vuV5rM0Qy-97" style="rounded=0;orthogonalLoop=1;jettySize=auto;html=1;exitX=1.002;exitY=0.602;exitDx=0;exitDy=0;entryX=0;entryY=0.5;entryDx=0;entryDy=0;strokeColor=#333333;endArrow=none;endFill=0;exitPerimeter=0;" parent="1" source="fGZl--ZOmI5c5a0cFDRq-43" target="4LYANcPHWq9vuV5rM0Qy-91" edge="1">
          <mxGeometry relative="1" as="geometry">
            <mxPoint x="1522" y="786.5" as="sourcePoint" />
          </mxGeometry>
        </mxCell>
        <mxCell id="4LYANcPHWq9vuV5rM0Qy-98" style="rounded=0;orthogonalLoop=1;jettySize=auto;html=1;exitX=0.75;exitY=1;exitDx=0;exitDy=0;entryX=0.5;entryY=0;entryDx=0;entryDy=0;strokeColor=#333333;endArrow=none;endFill=0;" parent="1" source="fGZl--ZOmI5c5a0cFDRq-43" target="4LYANcPHWq9vuV5rM0Qy-92" edge="1">
          <mxGeometry relative="1" as="geometry">
            <mxPoint x="1491.5" y="812" as="sourcePoint" />
          </mxGeometry>
        </mxCell>
        <mxCell id="4LYANcPHWq9vuV5rM0Qy-91" value="&lt;u&gt;tag_id&lt;/u&gt;" style="ellipse;whiteSpace=wrap;html=1;fillColor=#f8cecc;strokeColor=#b85450;fontColor=#333333;" parent="1" vertex="1">
          <mxGeometry x="1549" y="778" width="70" height="40" as="geometry" />
        </mxCell>
        <mxCell id="4LYANcPHWq9vuV5rM0Qy-92" value="tag_name" style="ellipse;whiteSpace=wrap;html=1;fillColor=#f8cecc;strokeColor=#b85450;fontColor=#333333;" parent="1" vertex="1">
          <mxGeometry x="1457" y="843" width="80" height="40" as="geometry" />
        </mxCell>
        <mxCell id="4LYANcPHWq9vuV5rM0Qy-93" value="tag_type" style="ellipse;whiteSpace=wrap;html=1;fillColor=#f8cecc;strokeColor=#b85450;fontColor=#333333;" parent="1" vertex="1">
          <mxGeometry x="1526" y="707" width="80" height="40" as="geometry" />
        </mxCell>
        <mxCell id="4LYANcPHWq9vuV5rM0Qy-96" style="rounded=0;orthogonalLoop=1;jettySize=auto;html=1;exitX=0.75;exitY=0;exitDx=0;exitDy=0;entryX=0.049;entryY=0.804;entryDx=0;entryDy=0;entryPerimeter=0;strokeColor=#333333;endArrow=none;endFill=0;" parent="1" source="fGZl--ZOmI5c5a0cFDRq-43" target="4LYANcPHWq9vuV5rM0Qy-93" edge="1">
          <mxGeometry relative="1" as="geometry">
            <mxPoint x="1491.5" y="761" as="sourcePoint" />
          </mxGeometry>
        </mxCell>
        <mxCell id="4LYANcPHWq9vuV5rM0Qy-103" style="rounded=0;orthogonalLoop=1;jettySize=auto;html=1;exitX=1;exitY=0.5;exitDx=0;exitDy=0;entryX=0;entryY=0.5;entryDx=0;entryDy=0;shape=link;strokeColor=#333333;" parent="1" source="fGZl--ZOmI5c5a0cFDRq-34" target="fGZl--ZOmI5c5a0cFDRq-43" edge="1">
          <mxGeometry relative="1" as="geometry">
            <mxPoint x="1341" y="716" as="sourcePoint" />
            <mxPoint x="1400" y="786.5" as="targetPoint" />
          </mxGeometry>
        </mxCell>
        <mxCell id="4LYANcPHWq9vuV5rM0Qy-104" value="" style="rounded=1;whiteSpace=wrap;html=1;fillColor=#f5f5f5;strokeColor=#666666;fontColor=#333333;dashed=1;align=left;verticalAlign=top;" parent="1" vertex="1">
          <mxGeometry x="1711" y="506" width="550" height="250" as="geometry" />
        </mxCell>
        <mxCell id="4LYANcPHWq9vuV5rM0Qy-105" value="&lt;b&gt;&lt;font style=&quot;font-size: 16px;&quot;&gt;图例说明 (Legend)&lt;/font&gt;&lt;/b&gt;" style="text;html=1;align=center;verticalAlign=middle;resizable=0;points=[];autosize=1;fontColor=#333333;" parent="1" vertex="1">
          <mxGeometry x="1881" y="516" width="180" height="30" as="geometry" />
        </mxCell>
        <mxCell id="4LYANcPHWq9vuV5rM0Qy-106" value="• &lt;b&gt;矩形&lt;/b&gt; = 实体集 (Entity Set)" style="text;html=1;align=left;verticalAlign=middle;resizable=0;points=[];autosize=1;fontSize=12;fontColor=#333333;" parent="1" vertex="1">
          <mxGeometry x="1731" y="556" width="220" height="25" as="geometry" />
        </mxCell>
        <mxCell id="4LYANcPHWq9vuV5rM0Qy-107" value="• &lt;b&gt;菱形&lt;/b&gt; = 联系集 (Relationship Set)" style="text;html=1;align=left;verticalAlign=middle;resizable=0;points=[];autosize=1;fontSize=12;fontColor=#333333;" parent="1" vertex="1">
          <mxGeometry x="1731" y="586" width="260" height="25" as="geometry" />
        </mxCell>
        <mxCell id="4LYANcPHWq9vuV5rM0Qy-108" value="• &lt;b&gt;椭圆&lt;/b&gt; = 属性 (Attribute)" style="text;html=1;align=left;verticalAlign=middle;resizable=0;points=[];autosize=1;fontSize=12;fontColor=#333333;" parent="1" vertex="1">
          <mxGeometry x="1731" y="616" width="210" height="25" as="geometry" />
        </mxCell>
        <mxCell id="4LYANcPHWq9vuV5rM0Qy-109" value="• &lt;b&gt;&lt;u&gt;下划线&lt;/u&gt;&lt;/b&gt; = 主键 (Primary Key)" style="text;html=1;align=left;verticalAlign=middle;resizable=0;points=[];autosize=1;fontSize=12;fontColor=#333333;" parent="1" vertex="1">
          <mxGeometry x="1731" y="646" width="240" height="25" as="geometry" />
        </mxCell>
        <mxCell id="4LYANcPHWq9vuV5rM0Qy-110" value="• &lt;b&gt;虚线椭圆&lt;/b&gt; = 可选属性 (Nullable)" style="text;html=1;align=left;verticalAlign=middle;resizable=0;points=[];autosize=1;fontSize=12;fontColor=#333333;" parent="1" vertex="1">
          <mxGeometry x="1731" y="676" width="260" height="25" as="geometry" />
        </mxCell>
        <mxCell id="4LYANcPHWq9vuV5rM0Qy-111" value="• &lt;b&gt;双层椭圆&lt;/b&gt; = 多值属性 (Multivalued)" style="text;html=1;align=left;verticalAlign=middle;resizable=0;points=[];autosize=1;fontSize=12;fontColor=#333333;" parent="1" vertex="1">
          <mxGeometry x="1731" y="706" width="280" height="25" as="geometry" />
        </mxCell>
        <mxCell id="4LYANcPHWq9vuV5rM0Qy-112" value="• &lt;b&gt;1, n, m&lt;/b&gt; = 基数约束 (Cardinality)" style="text;html=1;align=left;verticalAlign=middle;resizable=0;points=[];autosize=1;fontSize=12;fontColor=#333333;" parent="1" vertex="1">
          <mxGeometry x="1991" y="556" width="250" height="25" as="geometry" />
        </mxCell>
        <mxCell id="4LYANcPHWq9vuV5rM0Qy-113" value="" style="rounded=1;whiteSpace=wrap;html=1;fillColor=#ffe6cc;strokeColor=#d79b00;align=left;verticalAlign=top;fontColor=#333333;" parent="1" vertex="1">
          <mxGeometry x="1711" y="800" width="555" height="235" as="geometry" />
        </mxCell>
        <mxCell id="4LYANcPHWq9vuV5rM0Qy-114" value="&lt;b&gt;&lt;font style=&quot;font-size: 16px;&quot;&gt;核心业务规则 (Key Business Rules)&lt;/font&gt;&lt;/b&gt;" style="text;html=1;align=center;verticalAlign=middle;resizable=0;points=[];autosize=1;fontColor=#333333;" parent="1" vertex="1">
          <mxGeometry x="1821" y="810" width="300" height="30" as="geometry" />
        </mxCell>
        <mxCell id="4LYANcPHWq9vuV5rM0Qy-115" value="1. &lt;b&gt;is_core_ingredient&lt;/b&gt; 标识核心食材，用于匹配算法" style="text;html=1;align=left;verticalAlign=middle;resizable=0;points=[];autosize=1;fontSize=11;fontColor=#333333;" parent="1" vertex="1">
          <mxGeometry x="1731" y="850" width="350" height="20" as="geometry" />
        </mxCell>
        <mxCell id="4LYANcPHWq9vuV5rM0Qy-116" value="2. &lt;b&gt;User_Pantry (Owns)&lt;/b&gt; 存储用户虚拟食品柜" style="text;html=1;align=left;verticalAlign=middle;resizable=0;points=[];autosize=1;fontSize=11;fontColor=#333333;" parent="1" vertex="1">
          <mxGeometry x="1731" y="875" width="340" height="20" as="geometry" />
        </mxCell>
        <mxCell id="4LYANcPHWq9vuV5rM0Qy-117" value="3. &lt;b&gt;Tags&lt;/b&gt; 支持按菜系、餐食类型、饮食偏好筛选" style="text;html=1;align=left;verticalAlign=middle;resizable=0;points=[];autosize=1;fontSize=11;fontColor=#333333;" parent="1" vertex="1">
          <mxGeometry x="1731" y="900" width="360" height="20" as="geometry" />
        </mxCell>
        <mxCell id="4LYANcPHWq9vuV5rM0Qy-118" value="4. &lt;b&gt;User_Preferences&lt;/b&gt; 存储饮食限制与过敏原信息" style="text;html=1;align=left;verticalAlign=middle;resizable=0;points=[];autosize=1;fontSize=11;fontColor=#333333;" parent="1" vertex="1">
          <mxGeometry x="1731" y="925" width="380" height="20" as="geometry" />
        </mxCell>
        <mxCell id="4LYANcPHWq9vuV5rM0Qy-119" value="5. &lt;b&gt;aliases (多值)&lt;/b&gt; 支持食材模糊搜索 (如: 土豆=马铃薯)" style="text;html=1;align=left;verticalAlign=middle;resizable=0;points=[];autosize=1;fontSize=11;fontColor=#333333;" parent="1" vertex="1">
          <mxGeometry x="1731" y="950" width="420" height="20" as="geometry" />
        </mxCell>
        <mxCell id="4LYANcPHWq9vuV5rM0Qy-120" value="6. &lt;b&gt;Recipe-Ingredient (n:m)&lt;/b&gt; 允许一个菜谱多种食材" style="text;html=1;align=left;verticalAlign=middle;resizable=0;points=[];autosize=1;fontSize=11;fontColor=#333333;" parent="1" vertex="1">
          <mxGeometry x="1731" y="975" width="400" height="20" as="geometry" />
        </mxCell>
        <mxCell id="4LYANcPHWq9vuV5rM0Qy-121" value="7. &lt;b&gt;User-Recipe Favorites (n:m)&lt;/b&gt; 多用户可收藏多个菜谱" style="text;html=1;align=left;verticalAlign=middle;resizable=0;points=[];autosize=1;fontSize=11;fontColor=#333333;" parent="1" vertex="1">
          <mxGeometry x="1731" y="1000" width="420" height="20" as="geometry" />
        </mxCell>
        <mxCell id="4LYANcPHWq9vuV5rM0Qy-122" value="&lt;b&gt;参与约束:&lt;/b&gt;&amp;nbsp;双横线=全参与, 单横线=部分参与" style="text;html=1;align=center;verticalAlign=middle;resizable=0;points=[];autosize=1;fontSize=11;fontColor=#333333;fontStyle=2;" parent="1" vertex="1">
          <mxGeometry x="1873.5" y="1069" width="231" height="25" as="geometry" />
        </mxCell>
        <mxCell id="Ztesn_iidaRLeLfR7DhW-6" style="rounded=0;orthogonalLoop=1;jettySize=auto;html=1;exitX=0.5;exitY=1;exitDx=0;exitDy=0;entryX=0.5;entryY=0;entryDx=0;entryDy=0;shape=link;strokeColor=#333333;" parent="1" source="fGZl--ZOmI5c5a0cFDRq-47" target="fGZl--ZOmI5c5a0cFDRq-44" edge="1">
          <mxGeometry relative="1" as="geometry">
            <mxPoint x="1055" y="399.9999999999999" as="sourcePoint" />
            <mxPoint x="1050" y="467" as="targetPoint" />
          </mxGeometry>
        </mxCell>
        <mxCell id="Ztesn_iidaRLeLfR7DhW-12" style="rounded=0;orthogonalLoop=1;jettySize=auto;html=1;exitX=0;exitY=0.25;exitDx=0;exitDy=0;entryX=1;entryY=0.5;entryDx=0;entryDy=0;strokeColor=#333333;endArrow=none;endFill=0;" parent="1" source="fGZl--ZOmI5c5a0cFDRq-47" target="Ztesn_iidaRLeLfR7DhW-3" edge="1">
          <mxGeometry relative="1" as="geometry">
            <mxPoint x="995" y="354.9999999999999" as="sourcePoint" />
          </mxGeometry>
        </mxCell>
        <mxCell id="Ztesn_iidaRLeLfR7DhW-15" style="rounded=0;orthogonalLoop=1;jettySize=auto;html=1;exitX=0;exitY=0.75;exitDx=0;exitDy=0;entryX=1;entryY=0;entryDx=0;entryDy=0;strokeColor=#333333;endArrow=none;endFill=0;" parent="1" source="fGZl--ZOmI5c5a0cFDRq-47" target="Ztesn_iidaRLeLfR7DhW-4" edge="1">
          <mxGeometry relative="1" as="geometry">
            <mxPoint x="995" y="384.9999999999999" as="sourcePoint" />
          </mxGeometry>
        </mxCell>
        <mxCell id="Ztesn_iidaRLeLfR7DhW-16" style="rounded=0;orthogonalLoop=1;jettySize=auto;html=1;exitX=1;exitY=0.75;exitDx=0;exitDy=0;entryX=0;entryY=0;entryDx=0;entryDy=0;strokeColor=#333333;endArrow=none;endFill=0;" parent="1" source="fGZl--ZOmI5c5a0cFDRq-47" target="Ztesn_iidaRLeLfR7DhW-9" edge="1">
          <mxGeometry relative="1" as="geometry">
            <mxPoint x="1115" y="384.9999999999999" as="sourcePoint" />
          </mxGeometry>
        </mxCell>
        <mxCell id="Ztesn_iidaRLeLfR7DhW-3" value="&lt;font style=&quot;color: rgb(51, 51, 51);&quot;&gt;&lt;u&gt;step&lt;/u&gt;&lt;u style=&quot;background-color: transparent;&quot;&gt;_id&lt;/u&gt;&lt;/font&gt;" style="ellipse;whiteSpace=wrap;html=1;fillColor=light-dark(#d5e8d4, #ffcce6);strokeColor=light-dark(#82b366, #ff3399);fontColor=#333333;" parent="1" vertex="1">
          <mxGeometry x="854" y="345" width="90" height="40" as="geometry" />
        </mxCell>
        <mxCell id="Ztesn_iidaRLeLfR7DhW-4" value="&lt;font color=&quot;#333333&quot;&gt;step_order&lt;/font&gt;" style="ellipse;whiteSpace=wrap;html=1;fillColor=light-dark(#d5e8d4, #ffcce6);strokeColor=light-dark(#82b366, #ff3399);fontColor=#333333;" parent="1" vertex="1">
          <mxGeometry x="881" y="421" width="90" height="36" as="geometry" />
        </mxCell>
        <mxCell id="Ztesn_iidaRLeLfR7DhW-7" style="rounded=0;orthogonalLoop=1;jettySize=auto;html=1;exitX=0.5;exitY=1;exitDx=0;exitDy=0;entryX=0.5;entryY=0;entryDx=0;entryDy=0;strokeColor=#333333;endArrow=none;endFill=0;shape=link;" parent="1" source="fGZl--ZOmI5c5a0cFDRq-44" target="4LYANcPHWq9vuV5rM0Qy-14" edge="1">
          <mxGeometry relative="1" as="geometry">
            <mxPoint x="1050" y="547" as="sourcePoint" />
          </mxGeometry>
        </mxCell>
        <mxCell id="Ztesn_iidaRLeLfR7DhW-9" value="&lt;font color=&quot;#333333&quot;&gt;content&lt;/font&gt;" style="ellipse;whiteSpace=wrap;html=1;fillColor=light-dark(#d5e8d4, #ffcce6);strokeColor=light-dark(#82b366, #ff3399);fontColor=#333333;" parent="1" vertex="1">
          <mxGeometry x="1142" y="402" width="90" height="36" as="geometry" />
        </mxCell>
        <mxCell id="Ztesn_iidaRLeLfR7DhW-23" style="rounded=0;orthogonalLoop=1;jettySize=auto;html=1;exitX=1;exitY=0;exitDx=0;exitDy=0;entryX=0;entryY=1;entryDx=0;entryDy=0;endArrow=none;endFill=0;strokeColor=#333333;shape=link;" parent="1" source="Ztesn_iidaRLeLfR7DhW-17" target="Ztesn_iidaRLeLfR7DhW-20" edge="1">
          <mxGeometry relative="1" as="geometry" />
        </mxCell>
        <mxCell id="fGZl--ZOmI5c5a0cFDRq-28" style="rounded=0;orthogonalLoop=1;jettySize=auto;html=1;exitX=0.75;exitY=1;exitDx=0;exitDy=0;entryX=0;entryY=0;entryDx=0;entryDy=0;endArrow=none;endFill=0;strokeColor=#333333;" edge="1" parent="1" source="Ztesn_iidaRLeLfR7DhW-17" target="fGZl--ZOmI5c5a0cFDRq-24">
          <mxGeometry relative="1" as="geometry" />
        </mxCell>
        <mxCell id="fGZl--ZOmI5c5a0cFDRq-53" style="rounded=0;orthogonalLoop=1;jettySize=auto;html=1;exitX=1;exitY=0.5;exitDx=0;exitDy=0;entryX=0;entryY=0.5;entryDx=0;entryDy=0;strokeColor=#333333;endArrow=none;endFill=0;" edge="1" parent="1" source="Ztesn_iidaRLeLfR7DhW-17" target="fGZl--ZOmI5c5a0cFDRq-52">
          <mxGeometry relative="1" as="geometry" />
        </mxCell>
        <mxCell id="Ztesn_iidaRLeLfR7DhW-17" value="&lt;b&gt;&lt;font style=&quot;color: rgb(51, 51, 51);&quot;&gt;Reviews&lt;/font&gt;&lt;/b&gt;" style="rounded=0;whiteSpace=wrap;html=1;fillColor=#00FF80;strokeColor=#006633;fontStyle=1;fontSize=14;strokeWidth=2;fontColor=#333333;" parent="1" vertex="1">
          <mxGeometry x="602" y="887.75" width="120" height="64" as="geometry" />
        </mxCell>
        <mxCell id="Ztesn_iidaRLeLfR7DhW-22" style="rounded=0;orthogonalLoop=1;jettySize=auto;html=1;exitX=1;exitY=0.5;exitDx=0;exitDy=0;entryX=0;entryY=0.5;entryDx=0;entryDy=0;shape=link;strokeColor=#333333;" parent="1" source="Ztesn_iidaRLeLfR7DhW-19" target="Ztesn_iidaRLeLfR7DhW-17" edge="1">
          <mxGeometry relative="1" as="geometry" />
        </mxCell>
        <mxCell id="Ztesn_iidaRLeLfR7DhW-19" value="&lt;b&gt;&lt;font style=&quot;color: rgb(51, 51, 51);&quot;&gt;Pubilshes&lt;/font&gt;&lt;/b&gt;" style="rhombus;whiteSpace=wrap;html=1;fillColor=#ffe6cc;strokeColor=#d79b00;fontStyle=1;fontSize=13;strokeWidth=2;fontColor=#333333;" parent="1" vertex="1">
          <mxGeometry x="445" y="890" width="100" height="80" as="geometry" />
        </mxCell>
        <mxCell id="fGZl--ZOmI5c5a0cFDRq-50" style="rounded=0;orthogonalLoop=1;jettySize=auto;html=1;exitX=1;exitY=1;exitDx=0;exitDy=0;endArrow=none;endFill=0;strokeColor=#333333;" edge="1" parent="1" source="Ztesn_iidaRLeLfR7DhW-20" target="fGZl--ZOmI5c5a0cFDRq-49">
          <mxGeometry relative="1" as="geometry" />
        </mxCell>
        <mxCell id="Ztesn_iidaRLeLfR7DhW-20" value="&lt;b&gt;&lt;font style=&quot;color: rgb(51, 51, 51);&quot;&gt;Has_Review&lt;/font&gt;&lt;/b&gt;" style="rhombus;whiteSpace=wrap;html=1;fillColor=#ffe6cc;strokeColor=#d79b00;fontStyle=1;fontSize=13;strokeWidth=2;fontColor=#333333;" parent="1" vertex="1">
          <mxGeometry x="756" y="784" width="100" height="80" as="geometry" />
        </mxCell>
        <mxCell id="Ztesn_iidaRLeLfR7DhW-24" style="rounded=0;orthogonalLoop=1;jettySize=auto;html=1;exitX=1;exitY=0;exitDx=0;exitDy=0;entryX=0.113;entryY=1.028;entryDx=0;entryDy=0;entryPerimeter=0;endArrow=none;endFill=0;strokeColor=#333333;" parent="1" source="Ztesn_iidaRLeLfR7DhW-20" target="4LYANcPHWq9vuV5rM0Qy-14" edge="1">
          <mxGeometry relative="1" as="geometry" />
        </mxCell>
        <mxCell id="fGZl--ZOmI5c5a0cFDRq-6" value="&lt;b style=&quot;font-size: 13px;&quot;&gt;&lt;font style=&quot;color: rgb(51, 51, 51);&quot;&gt;User_Preferences&lt;/font&gt;&lt;/b&gt;" style="shape=ext;margin=3;double=1;whiteSpace=wrap;html=1;align=center;strokeColor=#9673A6;fillColor=#E1D5E7;" vertex="1" parent="1">
          <mxGeometry x="226" y="1188.75" width="140" height="58" as="geometry" />
        </mxCell>
        <mxCell id="fGZl--ZOmI5c5a0cFDRq-9" value="&lt;font style=&quot;color: rgb(51, 51, 51);&quot;&gt;Has_Preference&lt;/font&gt;" style="shape=rhombus;double=1;perimeter=rhombusPerimeter;whiteSpace=wrap;html=1;align=center;strokeColor=#d79b00;strokeWidth=2;verticalAlign=middle;fontFamily=Helvetica;fontSize=13;fontColor=#333333;fontStyle=1;fillColor=#ffe6cc;" vertex="1" parent="1">
          <mxGeometry x="238" y="1020" width="117" height="106" as="geometry" />
        </mxCell>
        <mxCell id="fGZl--ZOmI5c5a0cFDRq-13" value="&lt;font style=&quot;color: rgb(51, 51, 51);&quot;&gt;M&lt;/font&gt;" style="text;html=1;align=center;verticalAlign=middle;resizable=0;points=[];autosize=1;strokeColor=none;fillColor=none;" vertex="1" parent="1">
          <mxGeometry x="293" y="975" width="28" height="26" as="geometry" />
        </mxCell>
        <mxCell id="fGZl--ZOmI5c5a0cFDRq-14" value="&lt;font style=&quot;color: rgb(51, 51, 51);&quot;&gt;N&lt;/font&gt;" style="text;html=1;align=center;verticalAlign=middle;resizable=0;points=[];autosize=1;strokeColor=none;fillColor=none;" vertex="1" parent="1">
          <mxGeometry x="293" y="1145" width="27" height="26" as="geometry" />
        </mxCell>
        <mxCell id="fGZl--ZOmI5c5a0cFDRq-15" value="&lt;font style=&quot;color: rgb(51, 51, 51);&quot;&gt;1&lt;/font&gt;" style="text;html=1;align=center;verticalAlign=middle;resizable=0;points=[];autosize=1;strokeColor=none;fillColor=none;" vertex="1" parent="1">
          <mxGeometry x="388" y="910.75" width="25" height="26" as="geometry" />
        </mxCell>
        <mxCell id="fGZl--ZOmI5c5a0cFDRq-16" value="&lt;font style=&quot;color: rgb(51, 51, 51);&quot;&gt;M&lt;/font&gt;" style="text;html=1;align=center;verticalAlign=middle;resizable=0;points=[];autosize=1;strokeColor=none;fillColor=none;" vertex="1" parent="1">
          <mxGeometry x="560" y="902" width="28" height="26" as="geometry" />
        </mxCell>
        <mxCell id="fGZl--ZOmI5c5a0cFDRq-19" value="&lt;font style=&quot;color: rgb(51, 51, 51);&quot;&gt;M&lt;/font&gt;" style="text;html=1;align=center;verticalAlign=middle;resizable=0;points=[];autosize=1;strokeColor=none;fillColor=none;" vertex="1" parent="1">
          <mxGeometry x="453" y="993.75" width="28" height="26" as="geometry" />
        </mxCell>
        <mxCell id="fGZl--ZOmI5c5a0cFDRq-20" value="&lt;font style=&quot;color: rgb(51, 51, 51);&quot;&gt;N&lt;/font&gt;" style="text;html=1;align=center;verticalAlign=middle;resizable=0;points=[];autosize=1;strokeColor=none;fillColor=none;" vertex="1" parent="1">
          <mxGeometry x="746" y="1045" width="27" height="26" as="geometry" />
        </mxCell>
        <mxCell id="fGZl--ZOmI5c5a0cFDRq-21" value="&lt;font style=&quot;color: rgb(51, 51, 51);&quot;&gt;&lt;u style=&quot;font-weight: normal;&quot;&gt;review_id&lt;/u&gt;&lt;/font&gt;" style="ellipse;whiteSpace=wrap;html=1;fillColor=#00FF80;strokeColor=#006633;fontColor=#333333;rounded=0;strokeWidth=1;align=center;verticalAlign=middle;fontFamily=Helvetica;fontSize=14;fontStyle=1;" vertex="1" parent="1">
          <mxGeometry x="539" y="826.75" width="80" height="40" as="geometry" />
        </mxCell>
        <mxCell id="fGZl--ZOmI5c5a0cFDRq-22" style="rounded=0;orthogonalLoop=1;jettySize=auto;html=1;exitX=0.25;exitY=0;exitDx=0;exitDy=0;entryX=0.7;entryY=0.992;entryDx=0;entryDy=0;entryPerimeter=0;endArrow=none;endFill=0;strokeColor=#333333;" edge="1" parent="1" source="Ztesn_iidaRLeLfR7DhW-17" target="fGZl--ZOmI5c5a0cFDRq-21">
          <mxGeometry relative="1" as="geometry" />
        </mxCell>
        <mxCell id="fGZl--ZOmI5c5a0cFDRq-27" style="rounded=0;orthogonalLoop=1;jettySize=auto;html=1;exitX=0.5;exitY=0;exitDx=0;exitDy=0;entryX=0.25;entryY=1;entryDx=0;entryDy=0;endArrow=none;endFill=0;strokeColor=#333333;" edge="1" parent="1" source="fGZl--ZOmI5c5a0cFDRq-23" target="Ztesn_iidaRLeLfR7DhW-17">
          <mxGeometry relative="1" as="geometry" />
        </mxCell>
        <mxCell id="fGZl--ZOmI5c5a0cFDRq-23" value="&lt;font style=&quot;color: rgb(51, 51, 51); font-weight: normal;&quot;&gt;rating&lt;/font&gt;" style="ellipse;whiteSpace=wrap;html=1;fillColor=#00FF80;strokeColor=#006633;fontColor=#333333;rounded=0;strokeWidth=1;align=center;verticalAlign=middle;fontFamily=Helvetica;fontSize=14;fontStyle=1;" vertex="1" parent="1">
          <mxGeometry x="555" y="970" width="80" height="40" as="geometry" />
        </mxCell>
        <mxCell id="fGZl--ZOmI5c5a0cFDRq-24" value="&lt;font style=&quot;color: rgb(51, 51, 51); font-weight: normal;&quot;&gt;comment&lt;/font&gt;" style="ellipse;whiteSpace=wrap;html=1;fillColor=#00FF80;strokeColor=#006633;fontColor=#333333;rounded=0;strokeWidth=1;align=center;verticalAlign=middle;fontFamily=Helvetica;fontSize=14;fontStyle=1;" vertex="1" parent="1">
          <mxGeometry x="684" y="960" width="80" height="40" as="geometry" />
        </mxCell>
        <mxCell id="fGZl--ZOmI5c5a0cFDRq-25" value="&lt;font style=&quot;color: rgb(51, 51, 51); font-weight: normal;&quot;&gt;created_at&lt;/font&gt;" style="ellipse;whiteSpace=wrap;html=1;fillColor=#ffe6cc;strokeColor=#d79b00;fontColor=#333333;rounded=0;strokeWidth=1;align=center;verticalAlign=middle;fontFamily=Helvetica;fontSize=12;fontStyle=1;" vertex="1" parent="1">
          <mxGeometry x="646" y="804" width="80" height="40" as="geometry" />
        </mxCell>
        <mxCell id="fGZl--ZOmI5c5a0cFDRq-26" style="rounded=0;orthogonalLoop=1;jettySize=auto;html=1;exitX=0;exitY=0.5;exitDx=0;exitDy=0;entryX=1;entryY=0.5;entryDx=0;entryDy=0;endArrow=none;endFill=0;strokeColor=#333333;" edge="1" parent="1" source="Ztesn_iidaRLeLfR7DhW-20" target="fGZl--ZOmI5c5a0cFDRq-25">
          <mxGeometry relative="1" as="geometry" />
        </mxCell>
        <mxCell id="fGZl--ZOmI5c5a0cFDRq-29" value="&lt;font style=&quot;color: rgb(51, 51, 51);&quot;&gt;M&lt;/font&gt;" style="text;html=1;align=center;verticalAlign=middle;resizable=0;points=[];autosize=1;strokeColor=none;fillColor=none;" vertex="1" parent="1">
          <mxGeometry x="745" y="864" width="28" height="26" as="geometry" />
        </mxCell>
        <mxCell id="fGZl--ZOmI5c5a0cFDRq-30" value="&lt;font style=&quot;color: rgb(51, 51, 51);&quot;&gt;1&lt;/font&gt;" style="text;html=1;align=center;verticalAlign=middle;resizable=0;points=[];autosize=1;strokeColor=none;fillColor=none;" vertex="1" parent="1">
          <mxGeometry x="863.5" y="759" width="25" height="26" as="geometry" />
        </mxCell>
        <mxCell id="fGZl--ZOmI5c5a0cFDRq-32" value="&lt;font style=&quot;color: rgb(51, 51, 51);&quot;&gt;M&lt;/font&gt;" style="text;html=1;align=center;verticalAlign=middle;resizable=0;points=[];autosize=1;strokeColor=none;fillColor=none;" vertex="1" parent="1">
          <mxGeometry x="481" y="800" width="28" height="26" as="geometry" />
        </mxCell>
        <mxCell id="fGZl--ZOmI5c5a0cFDRq-33" value="&lt;font style=&quot;color: rgb(51, 51, 51);&quot;&gt;N&lt;/font&gt;" style="text;html=1;align=center;verticalAlign=middle;resizable=0;points=[];autosize=1;strokeColor=none;fillColor=none;" vertex="1" parent="1">
          <mxGeometry x="796" y="752" width="27" height="26" as="geometry" />
        </mxCell>
        <mxCell id="fGZl--ZOmI5c5a0cFDRq-34" value="Has_Tag" style="shape=rhombus;double=1;perimeter=rhombusPerimeter;whiteSpace=wrap;html=1;align=center;strokeColor=#d79b00;strokeWidth=2;verticalAlign=middle;fontFamily=Helvetica;fontSize=13;fontColor=#333333;fontStyle=1;fillColor=#ffe6cc;" vertex="1" parent="1">
          <mxGeometry x="1201" y="672" width="109" height="88" as="geometry" />
        </mxCell>
        <mxCell id="fGZl--ZOmI5c5a0cFDRq-37" value="&lt;font style=&quot;color: rgb(51, 51, 51);&quot;&gt;M&lt;/font&gt;" style="text;html=1;align=center;verticalAlign=middle;resizable=0;points=[];autosize=1;strokeColor=none;fillColor=none;" vertex="1" parent="1">
          <mxGeometry x="941" y="1029" width="28" height="26" as="geometry" />
        </mxCell>
        <mxCell id="fGZl--ZOmI5c5a0cFDRq-38" value="&lt;font style=&quot;color: rgb(51, 51, 51);&quot;&gt;N&lt;/font&gt;" style="text;html=1;align=center;verticalAlign=middle;resizable=0;points=[];autosize=1;strokeColor=none;fillColor=none;" vertex="1" parent="1">
          <mxGeometry x="1006" y="831" width="27" height="26" as="geometry" />
        </mxCell>
        <mxCell id="fGZl--ZOmI5c5a0cFDRq-39" value="&lt;font style=&quot;color: rgb(51, 51, 51);&quot;&gt;M&lt;/font&gt;" style="text;html=1;align=center;verticalAlign=middle;resizable=0;points=[];autosize=1;strokeColor=none;fillColor=none;" vertex="1" parent="1">
          <mxGeometry x="1018" y="616" width="28" height="26" as="geometry" />
        </mxCell>
        <mxCell id="fGZl--ZOmI5c5a0cFDRq-40" value="&lt;font style=&quot;color: rgb(51, 51, 51);&quot;&gt;N&lt;/font&gt;" style="text;html=1;align=center;verticalAlign=middle;resizable=0;points=[];autosize=1;strokeColor=none;fillColor=none;" vertex="1" parent="1">
          <mxGeometry x="1053" y="417" width="27" height="26" as="geometry" />
        </mxCell>
        <mxCell id="fGZl--ZOmI5c5a0cFDRq-41" value="&lt;font style=&quot;color: rgb(51, 51, 51);&quot;&gt;M&lt;/font&gt;" style="text;html=1;align=center;verticalAlign=middle;resizable=0;points=[];autosize=1;strokeColor=none;fillColor=none;" vertex="1" parent="1">
          <mxGeometry x="1122" y="692" width="28" height="26" as="geometry" />
        </mxCell>
        <mxCell id="fGZl--ZOmI5c5a0cFDRq-42" value="&lt;font style=&quot;color: rgb(51, 51, 51);&quot;&gt;N&lt;/font&gt;" style="text;html=1;align=center;verticalAlign=middle;resizable=0;points=[];autosize=1;strokeColor=none;fillColor=none;" vertex="1" parent="1">
          <mxGeometry x="1347" y="730" width="27" height="26" as="geometry" />
        </mxCell>
        <mxCell id="fGZl--ZOmI5c5a0cFDRq-43" value="Tags" style="shape=ext;margin=3;double=1;whiteSpace=wrap;html=1;align=center;rounded=0;strokeColor=#b85450;strokeWidth=2;verticalAlign=middle;fontFamily=Helvetica;fontSize=14;fontColor=#333333;fontStyle=1;fillColor=#f8cecc;" vertex="1" parent="1">
          <mxGeometry x="1402" y="759" width="120" height="56" as="geometry" />
        </mxCell>
        <mxCell id="fGZl--ZOmI5c5a0cFDRq-44" value="Contains_Step" style="shape=rhombus;double=1;perimeter=rhombusPerimeter;whiteSpace=wrap;html=1;align=center;strokeColor=#d79b00;strokeWidth=2;verticalAlign=middle;fontFamily=Helvetica;fontSize=13;fontColor=#333333;fontStyle=1;fillColor=#ffe6cc;" vertex="1" parent="1">
          <mxGeometry x="984" y="460" width="120" height="96" as="geometry" />
        </mxCell>
        <mxCell id="fGZl--ZOmI5c5a0cFDRq-47" value="&lt;font style=&quot;color: rgb(51, 51, 51);&quot;&gt;Ste&lt;span style=&quot;background-color: transparent;&quot;&gt;ps&lt;/span&gt;&lt;/font&gt;" style="shape=ext;margin=3;double=1;whiteSpace=wrap;html=1;align=center;rounded=0;strokeColor=#FF3399;strokeWidth=2;verticalAlign=middle;fontFamily=Helvetica;fontSize=14;fontColor=#333333;fontStyle=1;fillColor=#FFCCE6;" vertex="1" parent="1">
          <mxGeometry x="994" y="331" width="127" height="68" as="geometry" />
        </mxCell>
        <mxCell id="fGZl--ZOmI5c5a0cFDRq-49" value="created_at" style="ellipse;whiteSpace=wrap;html=1;fillColor=#ffe6cc;strokeColor=#d79b00;fontColor=#333333;" vertex="1" parent="1">
          <mxGeometry x="844" y="835" width="80" height="40" as="geometry" />
        </mxCell>
        <mxCell id="fGZl--ZOmI5c5a0cFDRq-52" value="&lt;font style=&quot;color: rgb(51, 51, 51); font-weight: normal;&quot;&gt;helpful_count&lt;/font&gt;" style="ellipse;whiteSpace=wrap;html=1;fillColor=#00FF80;strokeColor=#006633;fontColor=#333333;rounded=0;strokeWidth=1;align=center;verticalAlign=middle;fontFamily=Helvetica;fontSize=14;fontStyle=1;" vertex="1" parent="1">
          <mxGeometry x="734" y="896.75" width="94" height="40.25" as="geometry" />
        </mxCell>
      </root>
    </mxGraphModel>
  </diagram>
</mxfile>
